<svg width="24" height="24" viewBox="0 0 24 24" fill="none" xmlns="http://www.w3.org/2000/svg">
<path d="M21 6.7049C20.326 6.98937 19.611 7.1761 18.879 7.25887C19.6415 6.82346 20.227 6.13398 20.5027 5.31247C19.7778 5.72228 18.9847 6.01101 18.1577 6.1662C17.484 5.48248 16.5243 5.05518 15.4621 5.05518C13.4226 5.05518 11.7691 6.63041 11.7691 8.57326C11.7691 8.84904 11.8018 9.11752 11.8647 9.37508C8.79558 9.22831 6.07448 7.82771 4.25304 5.69918C3.93523 6.21878 3.75312 6.82319 3.75312 7.46786C3.75312 8.68848 4.40513 9.76527 5.39597 10.3962C4.80953 10.3787 4.23599 10.2278 3.72323 9.95611C3.72302 9.97085 3.72302 9.98559 3.72302 10.0004C3.72302 11.705 4.99596 13.1269 6.68529 13.4501C6.14148 13.591 5.57107 13.6117 5.01762 13.5104C5.48752 14.9082 6.85137 15.9253 8.46729 15.9537C7.20342 16.8973 5.61105 17.4598 3.88095 17.4598C3.58282 17.4598 3.28891 17.4431 3 17.4106C4.63427 18.4088 6.57539 18.9913 8.66086 18.9913C15.4535 18.9913 19.1679 13.6303 19.1679 8.98127C19.1679 8.82868 19.1644 8.67695 19.1573 8.5261C19.8802 8.02819 20.5042 7.41147 21 6.7049Z" fill="#969696"/>
</svg>
