<svg width="48" height="36" viewBox="0 0 48 36" fill="none" xmlns="http://www.w3.org/2000/svg">
<path d="M21 36C21 36 18 36 18 33C18 30 21 21 33 21C45 21 48 30 48 33C48 36 45 36 45 36H21ZM33 18C35.3869 18 37.6761 17.0518 39.364 15.364C41.0518 13.6761 42 11.3869 42 9C42 6.61305 41.0518 4.32387 39.364 2.63604C37.6761 0.948212 35.3869 0 33 0C30.6131 0 28.3239 0.948212 26.636 2.63604C24.9482 4.32387 24 6.61305 24 9C24 11.3869 24.9482 13.6761 26.636 15.364C28.3239 17.0518 30.6131 18 33 18Z" fill="#0E1422"/>
<path fill-rule="evenodd" clip-rule="evenodd" d="M15.648 35.9998C15.2033 35.0633 14.9815 34.0364 15 32.9998C15 28.9348 17.04 24.7498 20.808 21.8398C18.9273 21.2603 16.9678 20.9769 15 20.9998C3 20.9998 0 29.9998 0 32.9998C0 35.9998 3 35.9998 3 35.9998H15.648Z" fill="#0E1422"/>
<path d="M13.5 18C15.4891 18 17.3968 17.2098 18.8033 15.8033C20.2098 14.3968 21 12.4891 21 10.5C21 8.51088 20.2098 6.60322 18.8033 5.1967C17.3968 3.79018 15.4891 3 13.5 3C11.5109 3 9.60322 3.79018 8.1967 5.1967C6.79018 6.60322 6 8.51088 6 10.5C6 12.4891 6.79018 14.3968 8.1967 15.8033C9.60322 17.2098 11.5109 18 13.5 18Z" fill="#0E1422"/>
</svg>
