<svg enable-background="new 0 0 32 32" height="32" viewBox="0 0 32 32" width="32" xmlns="http://www.w3.org/2000/svg"><g fill="#828282"><path d="m16-.034c-8.841 0-16.035 7.192-16.035 16.034s7.194 16.034 16.035 16.034 16.035-7.192 16.035-16.034-7.194-16.034-16.035-16.034zm0 31c-8.252 0-14.965-6.714-14.965-14.966s6.713-14.966 14.965-14.966 14.965 6.714 14.965 14.966-6.713 14.966-14.965 14.966z"/><path d="m19.5 7h-2.668c-3.398-.034-3.832 2.069-3.832 4.345v1.655h-1.5c-.295-.034-.535.205-.5.5v3c-.035.295.205.534.5.5h1.5v7.5c-.031.295.208.534.503.5h3.055c.295.034.534-.205.44-.5l.002-7.5h2.5c.295.034.535-.205.5-.5v-3c.035-.295-.205-.534-.5-.5h-2.503l.003-1.5c.097-.639.097-.535.69-.5h1.789c.139-.031.287-.014.391-.115s.164-.239.129-.385v-3c.036-.295-.204-.534-.499-.5zm-.535 2.944-1.254-.048c-1.553 0-1.683.843-1.683 1.706l-.004 1.896c0 .142.056.278.156.379.1.1.236.156.378.156h2.442v1.932h-2.44c-.295 0-.534.239-.535.534l-.001 7.501h-2.024v-7.5c0-.295-.201-.534-.497-.534h-1.503v-1.932h1.503c.142 0 .278-.056.378-.156.1-.101.118-.237.118-.379v-2.155c0-2.242.453-3.31 2.832-3.31h2.133v1.91z"/></g></svg>