<svg width="24" height="24" viewBox="0 0 24 24" fill="none" xmlns="http://www.w3.org/2000/svg">
<path d="M21.5531 4C21.4622 3.99064 21.3706 3.99064 21.2798 4H2.6131C2.49346 4.00185 2.37462 4.01979 2.25977 4.05334L11.8931 13.6467L21.5531 4Z" fill="white"/>
<path d="M22.5404 4.92667L12.8338 14.5933C12.584 14.8417 12.246 14.9811 11.8938 14.9811C11.5415 14.9811 11.2036 14.8417 10.9538 14.5933L1.33378 5C1.3042 5.10869 1.28852 5.2207 1.28711 5.33333V18.6667C1.28711 19.0203 1.42759 19.3594 1.67763 19.6095C1.92768 19.8595 2.26682 20 2.62044 20H21.2871C21.6407 20 21.9799 19.8595 22.2299 19.6095C22.48 19.3594 22.6204 19.0203 22.6204 18.6667V5.33333C22.6151 5.19444 22.5881 5.05722 22.5404 4.92667ZM3.53378 18.6667H2.60711V17.7133L7.45378 12.9067L8.39378 13.8467L3.53378 18.6667ZM21.2738 18.6667H20.3404L15.4804 13.8467L16.4204 12.9067L21.2671 17.7133L21.2738 18.6667Z" fill="white"/>
</svg>
