<svg width="24" height="24" viewBox="0 0 24 24" fill="none" xmlns="http://www.w3.org/2000/svg">
<path d="M18.3904 9.98998C18.3904 14.14 14.3404 19.13 12.6904 20.99C12.3204 21.4 11.6804 21.4 11.3104 20.99C9.66035 19.13 5.61035 14.14 5.61035 9.98998C5.61035 6.45998 8.47035 3.59998 12.0004 3.59998C15.5304 3.59998 18.3904 6.45998 18.3904 9.98998Z" fill="white"/>
<path d="M11.9907 12.55C13.4045 12.55 14.5507 11.4038 14.5507 9.98998C14.5507 8.57613 13.4045 7.42998 11.9907 7.42998C10.5768 7.42998 9.43066 8.57613 9.43066 9.98998C9.43066 11.4038 10.5768 12.55 11.9907 12.55Z" fill="#032626"/>
</svg>
