<svg width="48" height="48" viewBox="0 0 48 48" fill="none" xmlns="http://www.w3.org/2000/svg">
<path d="M13.0669 25.0666H34.9336V29.1733H37.0669V22.9333H25.0669V18.6666H22.9336V22.9333H10.9336V29.1733H13.0669V25.0666Z" fill="#0E1422"/>
<path d="M18.667 30.6666H5.33366C3.8609 30.6666 2.66699 31.8605 2.66699 33.3333V41.3333C2.66699 42.8061 3.8609 44 5.33366 44H18.667C20.1398 44 21.3337 42.8061 21.3337 41.3333V33.3333C21.3337 31.8605 20.1398 30.6666 18.667 30.6666Z" fill="#0E1422"/>
<path d="M42.667 30.6666H29.3337C27.8609 30.6666 26.667 31.8605 26.667 33.3333V41.3333C26.667 42.8061 27.8609 44 29.3337 44H42.667C44.1397 44 45.3337 42.8061 45.3337 41.3333V33.3333C45.3337 31.8605 44.1397 30.6666 42.667 30.6666Z" fill="#0E1422"/>
<path d="M30.667 4H17.3337C15.8609 4 14.667 5.19391 14.667 6.66667V14.6667C14.667 16.1394 15.8609 17.3333 17.3337 17.3333H30.667C32.1398 17.3333 33.3337 16.1394 33.3337 14.6667V6.66667C33.3337 5.19391 32.1398 4 30.667 4Z" fill="#0E1422"/>
</svg>
