<svg width="1440" height="272" viewBox="0 0 1440 272" fill="none" xmlns="http://www.w3.org/2000/svg">
<g clip-path="url(#clip0_142_971)">
<rect width="1440" height="272" fill="url(#paint0_linear_142_971)"/>
<path d="M817 353C843.333 289.833 953.4 159.9 1183 145.5C1412.6 131.1 1518 -38.1667 1542 -121" stroke="#72DFDF" stroke-width="1.2"/>
<path d="M803.5 353C829.833 289.833 939.9 159.9 1169.5 145.5C1399.1 131.1 1504.5 -38.1667 1528.5 -121" stroke="#72DFDF" stroke-width="1.2"/>
<path d="M790 353C816.333 289.833 926.4 159.9 1156 145.5C1385.6 131.1 1491 -38.1667 1515 -121" stroke="#72DFDF" stroke-width="1.2"/>
<path d="M776.5 353C802.833 289.833 912.9 159.9 1142.5 145.5C1372.1 131.1 1477.5 -38.1667 1501.5 -121" stroke="#72DFDF" stroke-width="1.2"/>
<path d="M763 353C789.333 289.833 899.4 159.9 1129 145.5C1358.6 131.1 1464 -38.1667 1488 -121" stroke="#72DFDF" stroke-width="1.2"/>
<path d="M749.5 353C775.833 289.833 885.9 159.9 1115.5 145.5C1345.1 131.1 1450.5 -38.1667 1474.5 -121" stroke="#72DFDF" stroke-width="1.2"/>
<path d="M736 353C762.333 289.833 872.4 159.9 1102 145.5C1331.6 131.1 1437 -38.1667 1461 -121" stroke="#72DFDF" stroke-width="1.2"/>
<path d="M722.5 353C748.833 289.833 858.9 159.9 1088.5 145.5C1318.1 131.1 1423.5 -38.1667 1447.5 -121" stroke="#72DFDF" stroke-width="1.2"/>
<path d="M709 353C735.333 289.833 845.4 159.9 1075 145.5C1304.6 131.1 1410 -38.1667 1434 -121" stroke="#72DFDF" stroke-width="1.2"/>
<path d="M695.5 353C721.833 289.833 831.9 159.9 1061.5 145.5C1291.1 131.1 1396.5 -38.1667 1420.5 -121" stroke="#72DFDF" stroke-width="1.2"/>
<path d="M682 353C708.333 289.833 818.4 159.9 1048 145.5C1277.6 131.1 1383 -38.1667 1407 -121" stroke="#72DFDF" stroke-width="1.2"/>
<path d="M245.285 339.244C232.271 308.028 177.878 243.817 64.4128 236.701C-49.0523 229.584 -101.14 145.935 -113 105" stroke="#72DFDF" stroke-width="0.593023"/>
<path d="M251.956 339.244C238.943 308.028 184.549 243.817 71.0843 236.701C-42.3808 229.584 -94.468 145.935 -106.328 105" stroke="#72DFDF" stroke-width="0.593023"/>
<path d="M258.628 339.244C245.614 308.028 191.221 243.817 77.7558 236.701C-35.7093 229.584 -87.7965 145.935 -99.657 105" stroke="#72DFDF" stroke-width="0.593023"/>
<path d="M265.299 339.244C252.286 308.028 197.892 243.817 84.4273 236.701C-29.0378 229.584 -81.125 145.935 -92.9854 105" stroke="#72DFDF" stroke-width="0.593023"/>
<path d="M271.971 339.244C258.957 308.028 204.564 243.817 91.0989 236.701C-22.3663 229.584 -74.4535 145.935 -86.3139 105" stroke="#72DFDF" stroke-width="0.593023"/>
<path d="M278.642 339.244C265.629 308.028 211.235 243.817 97.7704 236.701C-15.6948 229.584 -67.782 145.935 -79.6424 105" stroke="#72DFDF" stroke-width="0.593023"/>
<path d="M285.314 339.244C272.3 308.028 217.907 243.817 104.442 236.701C-9.02325 229.584 -61.1105 145.935 -72.9709 105" stroke="#72DFDF" stroke-width="0.593023"/>
<path d="M291.985 339.244C278.972 308.028 224.579 243.817 111.113 236.701C-2.35174 229.584 -54.4389 145.935 -66.2994 105" stroke="#72DFDF" stroke-width="0.593023"/>
<path d="M298.657 339.244C285.643 308.028 231.25 243.817 117.785 236.701C4.31977 229.584 -47.7674 145.935 -59.6279 105" stroke="#72DFDF" stroke-width="0.593023"/>
<path d="M305.328 339.244C292.315 308.028 237.922 243.817 124.456 236.701C10.9913 229.584 -41.0959 145.935 -52.9564 105" stroke="#72DFDF" stroke-width="0.593023"/>
<path d="M312 339.244C298.986 308.028 244.593 243.817 131.128 236.701C17.6628 229.584 -34.4244 145.935 -46.2849 105" stroke="#72DFDF" stroke-width="0.593023"/>
</g>
<defs>
<linearGradient id="paint0_linear_142_971" x1="720" y1="0" x2="720" y2="272" gradientUnits="userSpaceOnUse">
<stop stop-color="#27E7E7"/>
<stop offset="1" stop-color="#B6FFFF" stop-opacity="0"/>
</linearGradient>
<clipPath id="clip0_142_971">
<rect width="1440" height="272" fill="white"/>
</clipPath>
</defs>
</svg>
