<svg width="22" height="16" viewBox="0 0 22 16" fill="none" xmlns="http://www.w3.org/2000/svg">
<path d="M21.54 0.926636L11.8333 10.5933C11.5835 10.8416 11.2455 10.981 10.8933 10.981C10.541 10.981 10.2031 10.8416 9.95329 10.5933L0.333288 0.999969C0.303714 1.10866 0.288034 1.22067 0.286621 1.3333V14.6666C0.286621 15.0203 0.427097 15.3594 0.677145 15.6094C0.927194 15.8595 1.26633 16 1.61995 16H20.2866C20.6402 16 20.9794 15.8595 21.2294 15.6094C21.4795 15.3594 21.62 15.0203 21.62 14.6666V1.3333C21.6146 1.19441 21.5877 1.05719 21.54 0.926636ZM2.53329 14.6666H1.60662V13.7133L6.45329 8.90664L7.39329 9.84663L2.53329 14.6666ZM20.2733 14.6666H19.34L14.48 9.84663L15.42 8.90664L20.2666 13.7133L20.2733 14.6666Z" fill="black"/>
</svg>
