<svg width="22" height="18" viewBox="0 0 22 18" fill="none" xmlns="http://www.w3.org/2000/svg">
<path d="M2.9375 0C2.29103 0 1.67105 0.256807 1.21393 0.713927C0.756807 1.17105 0.5 1.79103 0.5 2.4375V15.5625C0.5 15.8826 0.563048 16.1996 0.685544 16.4953C0.808039 16.791 0.987584 17.0597 1.21393 17.2861C1.44027 17.5124 1.70898 17.692 2.00471 17.8145C2.30044 17.937 2.6174 18 2.9375 18H19.0625C19.3826 18 19.6996 17.937 19.9953 17.8145C20.291 17.692 20.5597 17.5124 20.7861 17.2861C21.0124 17.0597 21.192 16.791 21.3145 16.4953C21.437 16.1996 21.5 15.8826 21.5 15.5625V2.4375C21.5 1.79103 21.2432 1.17105 20.7861 0.713927C20.329 0.256807 19.709 0 19.0625 0H2.9375ZM12.5 6.75C12.5 6.55109 12.579 6.36032 12.7197 6.21967C12.8603 6.07902 13.0511 6 13.25 6H17.75C17.9489 6 18.1397 6.07902 18.2803 6.21967C18.421 6.36032 18.5 6.55109 18.5 6.75C18.5 6.94891 18.421 7.13968 18.2803 7.28033C18.1397 7.42098 17.9489 7.5 17.75 7.5H13.25C13.0511 7.5 12.8603 7.42098 12.7197 7.28033C12.579 7.13968 12.5 6.94891 12.5 6.75ZM13.25 9.75H17.75C17.9489 9.75 18.1397 9.82902 18.2803 9.96967C18.421 10.1103 18.5 10.3011 18.5 10.5C18.5 10.6989 18.421 10.8897 18.2803 11.0303C18.1397 11.171 17.9489 11.25 17.75 11.25H13.25C13.0511 11.25 12.8603 11.171 12.7197 11.0303C12.579 10.8897 12.5 10.6989 12.5 10.5C12.5 10.3011 12.579 10.1103 12.7197 9.96967C12.8603 9.82902 13.0511 9.75 13.25 9.75ZM8.75 6.75C8.75 7.14782 8.59196 7.52936 8.31066 7.81066C8.02936 8.09196 7.64782 8.25 7.25 8.25C6.85218 8.25 6.47064 8.09196 6.18934 7.81066C5.90804 7.52936 5.75 7.14782 5.75 6.75C5.75 6.35218 5.90804 5.97064 6.18934 5.68934C6.47064 5.40804 6.85218 5.25 7.25 5.25C7.64782 5.25 8.02936 5.40804 8.31066 5.68934C8.59196 5.97064 8.75 6.35218 8.75 6.75ZM4.25 10.125C4.25 9.82663 4.36853 9.54048 4.5795 9.32951C4.79048 9.11853 5.07663 9 5.375 9H9.125C9.42337 9 9.70952 9.11853 9.9205 9.32951C10.1315 9.54048 10.25 9.82663 10.25 10.125C10.25 10.125 10.25 12.75 7.25 12.75C4.25 12.75 4.25 10.125 4.25 10.125Z" fill="black"/>
</svg>
