<svg width="39" height="38" viewBox="0 0 39 38" fill="none" xmlns="http://www.w3.org/2000/svg">
<path d="M37.1106 0.749435L1.22516 9.32169C0.943881 9.38886 0.688015 9.5359 0.488368 9.74511C0.288722 9.95432 0.153807 10.2168 0.0998686 10.5009C0.0512523 10.7757 0.0802452 11.0586 0.183588 11.3178C0.286931 11.577 0.460526 11.8022 0.684858 11.9681L13.1499 20.6394L26.1459 9.73455L28.0742 12.0327L15.0783 22.9376L21.3784 36.7231C21.4772 36.936 21.6246 37.1228 21.8087 37.2683C21.9928 37.4139 22.2085 37.5142 22.4384 37.5613C22.6683 37.6083 22.9061 37.6007 23.1326 37.5392C23.359 37.4776 23.5679 37.3638 23.7424 37.2068C23.9213 37.0548 24.0621 36.8629 24.1534 36.6465L38.8269 2.79477C38.9342 2.54041 38.9692 2.26137 38.9281 1.98838C38.887 1.71539 38.7713 1.45903 38.5939 1.24755C38.4164 1.03607 38.184 0.877662 37.9223 0.789774C37.6606 0.701888 37.3798 0.687929 37.1106 0.749435Z" fill="#0E1422"/>
</svg>
