<svg width="42" height="36" viewBox="0 0 42 36" fill="none" xmlns="http://www.w3.org/2000/svg">
<path d="M34.7144 3.85718V29.1429C34.714 29.3571 34.7938 29.5637 34.9381 29.7219C35.0825 29.8802 35.2808 29.9788 35.4941 29.9981C35.7074 30.0175 35.9203 29.9562 36.0907 29.8265C36.2611 29.6968 36.3768 29.5079 36.415 29.2972L36.4287 29.1429V6.00003H38.5716C39.3245 6.00006 40.0498 6.28319 40.6037 6.7932C41.1575 7.30322 41.4993 8.00283 41.5613 8.75318L41.5716 9.00003V29.5715C41.5717 30.9946 41.0272 32.3637 40.0498 33.3981C39.0725 34.4325 37.7364 35.0538 36.3156 35.1343L36.0001 35.1429H6.00014C4.57705 35.143 3.20786 34.5985 2.17346 33.6212C1.13905 32.6438 0.517852 31.3077 0.437283 29.8869L0.428711 29.5715V3.85718C0.428739 3.10428 0.711861 2.37892 1.22188 1.82508C1.73189 1.27124 2.43151 0.929416 3.18185 0.867464L3.42871 0.857178H31.7144C32.4673 0.857206 33.1927 1.14033 33.7465 1.65034C34.3004 2.16036 34.6422 2.85998 34.7041 3.61032L34.7144 3.85718V29.1429V3.85718ZM13.7093 16.2926H9.42871C8.67581 16.2926 7.95045 16.5758 7.39661 17.0858C6.84277 17.5958 6.50095 18.2954 6.439 19.0457L6.42871 19.2926V23.5715C6.42874 24.3244 6.71186 25.0497 7.22188 25.6036C7.73189 26.1574 8.43151 26.4992 9.18185 26.5612L9.42871 26.5715H13.7093C14.4625 26.5714 15.188 26.288 15.7419 25.7777C16.2958 25.2673 16.6374 24.5673 16.699 23.8166L16.7076 23.5715V19.2926C16.708 18.5394 16.425 17.8136 15.915 17.2594C15.4049 16.7052 14.7051 16.3632 13.9544 16.3012L13.7093 16.2926ZM27.4287 24H21.4287L21.2539 24.012C20.9461 24.0544 20.6641 24.2067 20.46 24.4408C20.2559 24.675 20.1434 24.9751 20.1434 25.2857C20.1434 25.5964 20.2559 25.8965 20.46 26.1307C20.6641 26.3648 20.9461 26.5171 21.2539 26.5595L21.4287 26.5715H27.4287L27.6036 26.5595C27.9113 26.5171 28.1933 26.3648 28.3974 26.1307C28.6016 25.8965 28.714 25.5964 28.714 25.2857C28.714 24.9751 28.6016 24.675 28.3974 24.4408C28.1933 24.2067 27.9113 24.0544 27.6036 24.012L27.4287 24ZM9.42871 18.864H13.7093C13.8056 18.8641 13.8991 18.8966 13.9747 18.9563C14.0502 19.016 14.1035 19.0995 14.1259 19.1932L14.1379 19.2926V23.5715C14.1377 23.668 14.1049 23.7617 14.0449 23.8373C13.9848 23.9129 13.901 23.966 13.807 23.988L13.7093 24H9.42871C9.33216 23.9999 9.23848 23.9671 9.16288 23.9071C9.08727 23.847 9.03415 23.7632 9.01214 23.6692L9.00014 23.5715V19.2926C8.99991 19.1958 9.0325 19.1017 9.09258 19.0257C9.15266 18.9498 9.2367 18.8964 9.331 18.8743L9.42871 18.864H13.7093H9.42871ZM27.4287 16.2926H21.4287L21.2539 16.3029C20.9448 16.3438 20.6612 16.4957 20.4557 16.7301C20.2503 16.9646 20.137 17.2657 20.137 17.5775C20.137 17.8892 20.2503 18.1903 20.4557 18.4248C20.6612 18.6592 20.9448 18.8111 21.2539 18.852L21.4287 18.864H27.4287L27.6036 18.852C27.9126 18.8111 28.1962 18.6592 28.4017 18.4248C28.6071 18.1903 28.7204 17.8892 28.7204 17.5775C28.7204 17.2657 28.6071 16.9646 28.4017 16.7301C28.1962 16.4957 27.9126 16.3438 27.6036 16.3029L27.4287 16.2926ZM27.4287 8.56632H7.71442L7.53957 8.57832C7.23183 8.62066 6.94983 8.77298 6.7457 9.00713C6.54157 9.24127 6.4291 9.5414 6.4291 9.85203C6.4291 10.1627 6.54157 10.4628 6.7457 10.6969C6.94983 10.9311 7.23183 11.0834 7.53957 11.1257L7.71442 11.1377H27.4287L27.6036 11.1257C27.9113 11.0834 28.1933 10.9311 28.3974 10.6969C28.6016 10.4628 28.714 10.1627 28.714 9.85203C28.714 9.5414 28.6016 9.24127 28.3974 9.00713C28.1933 8.77298 27.9113 8.62066 27.6036 8.57832L27.4287 8.56632Z" fill="#0E1422"/>
</svg>
