<svg width="33" height="40" viewBox="0 0 33 40" fill="none" xmlns="http://www.w3.org/2000/svg">
<path d="M0 5C0 3.67392 0.526784 2.40215 1.46447 1.46447C2.40215 0.526784 3.67392 0 5 0H28C28.6566 0 29.3068 0.129329 29.9134 0.380602C30.52 0.631876 31.0712 1.00017 31.5355 1.46447C31.9998 1.92876 32.3681 2.47995 32.6194 3.08658C32.8707 3.69321 33 4.34339 33 5V33.5C33 33.8978 32.842 34.2794 32.5607 34.5607C32.2794 34.842 31.8978 35 31.5 35H3C3 35.5304 3.21071 36.0391 3.58579 36.4142C3.96086 36.7893 4.46957 37 5 37H31.5C31.8978 37 32.2794 37.158 32.5607 37.4393C32.842 37.7206 33 38.1022 33 38.5C33 38.8978 32.842 39.2794 32.5607 39.5607C32.2794 39.842 31.8978 40 31.5 40H5C3.67392 40 2.40215 39.4732 1.46447 38.5355C0.526784 37.5979 0 36.3261 0 35V5ZM16.5 12C17.0304 12 17.5391 11.7893 17.9142 11.4142C18.2893 11.0391 18.5 10.5304 18.5 10C18.5 9.46957 18.2893 8.96086 17.9142 8.58579C17.5391 8.21071 17.0304 8 16.5 8C15.9696 8 15.4609 8.21071 15.0858 8.58579C14.7107 8.96086 14.5 9.46957 14.5 10C14.5 10.5304 14.7107 11.0391 15.0858 11.4142C15.4609 11.7893 15.9696 12 16.5 12V12ZM15 15.5V25.5C15 25.8978 15.158 26.2794 15.4393 26.5607C15.7206 26.842 16.1022 27 16.5 27C16.8978 27 17.2794 26.842 17.5607 26.5607C17.842 26.2794 18 25.8978 18 25.5V15.5C18 15.1022 17.842 14.7206 17.5607 14.4393C17.2794 14.158 16.8978 14 16.5 14C16.1022 14 15.7206 14.158 15.4393 14.4393C15.158 14.7206 15 15.1022 15 15.5Z" fill="#0E1422"/>
</svg>
