<svg width="48" height="48" viewBox="0 0 48 48" fill="none" xmlns="http://www.w3.org/2000/svg">
<path d="M24 0C10.9896 0 0 10.9896 0 24C0 37.0104 10.9896 48 24 48C37.0104 48 48 37.0104 48 24C48 10.9896 37.0104 0 24 0ZM24 12C28.1448 12 31.2 15.0528 31.2 19.2C31.2 23.3472 28.1448 26.4 24 26.4C19.8576 26.4 16.8 23.3472 16.8 19.2C16.8 15.0528 19.8576 12 24 12ZM11.7456 35.4528C13.8984 32.2848 17.4888 30.1728 21.6 30.1728H26.4C30.5136 30.1728 34.1016 32.2848 36.2544 35.4528C33.1872 38.736 28.836 40.8 24 40.8C19.164 40.8 14.8128 38.736 11.7456 35.4528Z" fill="#0E1422"/>
</svg>
