<svg width="45" height="44" viewBox="0 0 45 44" fill="none" xmlns="http://www.w3.org/2000/svg">
<path d="M37.7465 19.3333H36.6665V9.77331C36.6665 9.06607 36.3856 8.38779 35.8855 7.88769C35.3854 7.3876 34.7071 7.10665 33.9998 7.10665H25.9998C25.9155 5.50158 25.2698 3.97721 24.1754 2.80001C23.0811 1.62281 21.6078 0.867688 20.0132 0.666646C19.1011 0.572741 18.1794 0.667998 17.3058 0.946462C16.4322 1.22493 15.6254 1.68061 14.9359 2.28503C14.2464 2.88945 13.6889 3.6296 13.2985 4.45923C12.908 5.28885 12.6929 6.1901 12.6665 7.10665H3.33317C2.62593 7.10665 1.94765 7.3876 1.44755 7.88769C0.947455 8.38779 0.666504 9.06607 0.666504 9.77331V20.6666H4.41317C5.43912 20.6368 6.44007 20.9861 7.22471 21.6478C8.00935 22.3095 8.52265 23.2371 8.6665 24.2533C8.71841 24.8109 8.65266 25.3732 8.47351 25.9037C8.29435 26.4343 8.00579 26.9213 7.6265 27.3333C7.25372 27.7501 6.7977 28.0841 6.28785 28.3138C5.77801 28.5434 5.22568 28.6636 4.6665 28.6666H0.666504V40.44C0.666504 41.1472 0.947455 41.8255 1.44755 42.3256C1.94765 42.8257 2.62593 43.1067 3.33317 43.1067H33.9998C34.7071 43.1067 35.3854 42.8257 35.8855 42.3256C36.3856 41.8255 36.6665 41.1472 36.6665 40.44V32.6666H37.9998C38.9356 32.6715 39.8619 32.4794 40.7185 32.1026C41.5751 31.7259 42.3428 31.1731 42.9716 30.4801C43.6004 29.7871 44.0763 28.9695 44.3684 28.0805C44.6604 27.1914 44.762 26.2509 44.6665 25.32C44.4504 23.6461 43.6254 22.1104 42.349 21.0061C41.0725 19.9018 39.4341 19.3063 37.7465 19.3333Z" fill="#0E1422"/>
</svg>
