<svg width="24" height="24" viewBox="0 0 24 24" fill="none" xmlns="http://www.w3.org/2000/svg">
<g clip-path="url(#clip0_10_951)">
<path d="M12.0033 7.95683C9.73189 7.95683 7.89975 9.76035 7.89975 11.9963C7.89975 14.2322 9.73189 16.0357 12.0033 16.0357C14.2747 16.0357 16.1069 14.2322 16.1069 11.9963C16.1069 9.76035 14.2747 7.95683 12.0033 7.95683ZM12.0033 14.6225C10.5355 14.6225 9.33546 13.4447 9.33546 11.9963C9.33546 10.5478 10.5319 9.37011 12.0033 9.37011C13.4747 9.37011 14.6712 10.5478 14.6712 11.9963C14.6712 13.4447 13.4712 14.6225 12.0033 14.6225ZM17.2319 7.7916C17.2319 8.31543 16.8033 8.73379 16.2747 8.73379C15.7426 8.73379 15.3176 8.31191 15.3176 7.7916C15.3176 7.27129 15.7462 6.84941 16.2747 6.84941C16.8033 6.84941 17.2319 7.27129 17.2319 7.7916ZM19.9497 8.74785C19.889 7.48574 19.5962 6.36777 18.6569 5.44668C17.7212 4.52559 16.5855 4.2373 15.3033 4.17402C13.9819 4.1002 10.0212 4.1002 8.69975 4.17402C7.42118 4.23379 6.28546 4.52207 5.34618 5.44316C4.40689 6.36426 4.11761 7.48222 4.05332 8.74433C3.97832 10.0451 3.97832 13.9439 4.05332 15.2447C4.11403 16.5068 4.40689 17.6248 5.34618 18.5459C6.28546 19.467 7.4176 19.7553 8.69975 19.8185C10.0212 19.8924 13.9819 19.8924 15.3033 19.8185C16.5855 19.7588 17.7212 19.4705 18.6569 18.5459C19.5926 17.6248 19.8855 16.5068 19.9497 15.2447C20.0247 13.9439 20.0247 10.0486 19.9497 8.74785ZM18.2426 16.6404C17.964 17.3295 17.4247 17.8603 16.7212 18.1381C15.6676 18.5494 13.1676 18.4545 12.0033 18.4545C10.839 18.4545 8.33546 18.5459 7.28546 18.1381C6.58546 17.8639 6.04618 17.333 5.76403 16.6404C5.34618 15.6033 5.44261 13.1424 5.44261 11.9963C5.44261 10.8502 5.34975 8.38574 5.76403 7.35215C6.0426 6.66308 6.58189 6.13223 7.28546 5.85449C8.33903 5.44316 10.839 5.53809 12.0033 5.53809C13.1676 5.53809 15.6712 5.44668 16.7212 5.85449C17.4212 6.12871 17.9605 6.65957 18.2426 7.35215C18.6605 8.38926 18.564 10.8502 18.564 11.9963C18.564 13.1424 18.6605 15.6068 18.2426 16.6404Z" fill="white"/>
</g>
<defs>
<clipPath id="clip0_10_951">
<rect width="16" height="18" fill="white" transform="translate(4 3)"/>
</clipPath>
</defs>
</svg>
